<svg id="visual" viewBox="0 0 3960 3540" width="3960" height="3540" xmlns="http://www.w3.org/2000/svg" xmlns:xlink="http://www.w3.org/1999/xlink" version="1.1"><path d="M0 178L73.3 154.3C146.7 130.7 293.3 83.3 440 95.2C586.7 107 733.3 178 880 219.3C1026.7 260.7 1173.3 272.3 1320 236.8C1466.7 201.3 1613.3 118.7 1760 101C1906.7 83.3 2053.3 130.7 2200 178C2346.7 225.3 2493.3 272.7 2640 272.7C2786.7 272.7 2933.3 225.3 3080 225.3C3226.7 225.3 3373.3 272.7 3520 296.3C3666.7 320 3813.3 320 3886.7 320L3960 320L3960 0L3886.7 0C3813.3 0 3666.7 0 3520 0C3373.3 0 3226.7 0 3080 0C2933.3 0 2786.7 0 2640 0C2493.3 0 2346.7 0 2200 0C2053.3 0 1906.7 0 1760 0C1613.3 0 1466.7 0 1320 0C1173.3 0 1026.7 0 880 0C733.3 0 586.7 0 440 0C293.3 0 146.7 0 73.3 0L0 0Z" fill="#d06497"></path><path d="M0 390L73.3 366.5C146.7 343 293.3 296 440 296C586.7 296 733.3 343 880 378.3C1026.7 413.7 1173.3 437.3 1320 425.7C1466.7 414 1613.3 367 1760 384.7C1906.7 402.3 2053.3 484.7 2200 531.8C2346.7 579 2493.3 591 2640 579.3C2786.7 567.7 2933.3 532.3 3080 550C3226.7 567.7 3373.3 638.3 3520 638.3C3666.7 638.3 3813.3 567.7 3886.7 532.3L3960 497L3960 318L3886.7 318C3813.3 318 3666.7 318 3520 294.3C3373.3 270.7 3226.7 223.3 3080 223.3C2933.3 223.3 2786.7 270.7 2640 270.7C2493.3 270.7 2346.7 223.3 2200 176C2053.3 128.7 1906.7 81.3 1760 99C1613.3 116.7 1466.7 199.3 1320 234.8C1173.3 270.3 1026.7 258.7 880 217.3C733.3 176 586.7 105 440 93.2C293.3 81.3 146.7 128.7 73.3 152.3L0 176Z" fill="#c64a85"></path><path d="M0 461L73.3 449.2C146.7 437.3 293.3 413.7 440 437.3C586.7 461 733.3 532 880 561.5C1026.7 591 1173.3 579 1320 567.2C1466.7 555.3 1613.3 543.7 1760 585C1906.7 626.3 2053.3 720.7 2200 750.2C2346.7 779.7 2493.3 744.3 2640 720.8C2786.7 697.3 2933.3 685.7 3080 709.3C3226.7 733 3373.3 792 3520 786C3666.7 780 3813.3 709 3886.7 673.5L3960 638L3960 495L3886.7 530.3C3813.3 565.7 3666.7 636.3 3520 636.3C3373.3 636.3 3226.7 565.7 3080 548C2933.3 530.3 2786.7 565.7 2640 577.3C2493.3 589 2346.7 577 2200 529.8C2053.3 482.7 1906.7 400.3 1760 382.7C1613.3 365 1466.7 412 1320 423.7C1173.3 435.3 1026.7 411.7 880 376.3C733.3 341 586.7 294 440 294C293.3 294 146.7 341 73.3 364.5L0 388Z" fill="#bc2a74"></path><path d="M0 709L73.3 685.3C146.7 661.7 293.3 614.3 440 620.2C586.7 626 733.3 685 880 726.3C1026.7 767.7 1173.3 791.3 1320 779.7C1466.7 768 1613.3 721 1760 756.5C1906.7 792 2053.3 910 2200 939.5C2346.7 969 2493.3 910 2640 886.3C2786.7 862.7 2933.3 874.3 3080 903.8C3226.7 933.3 3373.3 980.7 3520 945.3C3666.7 910 3813.3 792 3886.7 733L3960 674L3960 636L3886.7 671.5C3813.3 707 3666.7 778 3520 784C3373.3 790 3226.7 731 3080 707.3C2933.3 683.7 2786.7 695.3 2640 718.8C2493.3 742.3 2346.7 777.7 2200 748.2C2053.3 718.7 1906.7 624.3 1760 583C1613.3 541.7 1466.7 553.3 1320 565.2C1173.3 577 1026.7 589 880 559.5C733.3 530 586.7 459 440 435.3C293.3 411.7 146.7 435.3 73.3 447.2L0 459Z" fill="#a71e65"></path><path d="M0 957L73.3 898C146.7 839 293.3 721 440 709.2C586.7 697.3 733.3 791.7 880 844.7C1026.7 897.7 1173.3 909.3 1320 891.7C1466.7 874 1613.3 827 1760 850.7C1906.7 874.3 2053.3 968.7 2200 1027.7C2346.7 1086.7 2493.3 1110.3 2640 1122.2C2786.7 1134 2933.3 1134 3080 1122.2C3226.7 1110.3 3373.3 1086.7 3520 1045.3C3666.7 1004 3813.3 945 3886.7 915.5L3960 886L3960 672L3886.7 731C3813.3 790 3666.7 908 3520 943.3C3373.3 978.7 3226.7 931.3 3080 901.8C2933.3 872.3 2786.7 860.7 2640 884.3C2493.3 908 2346.7 967 2200 937.5C2053.3 908 1906.7 790 1760 754.5C1613.3 719 1466.7 766 1320 777.7C1173.3 789.3 1026.7 765.7 880 724.3C733.3 683 586.7 624 440 618.2C293.3 612.3 146.7 659.7 73.3 683.3L0 707Z" fill="#911a58"></path><path d="M0 1098L73.3 1050.8C146.7 1003.7 293.3 909.3 440 891.7C586.7 874 733.3 933 880 998C1026.7 1063 1173.3 1134 1320 1128.2C1466.7 1122.3 1613.3 1039.7 1760 1039.7C1906.7 1039.7 2053.3 1122.3 2200 1193.2C2346.7 1264 2493.3 1323 2640 1405.5C2786.7 1488 2933.3 1594 3080 1558.5C3226.7 1523 3373.3 1346 3520 1257.5C3666.7 1169 3813.3 1169 3886.7 1169L3960 1169L3960 884L3886.7 913.5C3813.3 943 3666.7 1002 3520 1043.3C3373.3 1084.7 3226.7 1108.3 3080 1120.2C2933.3 1132 2786.7 1132 2640 1120.2C2493.3 1108.3 2346.7 1084.7 2200 1025.7C2053.3 966.7 1906.7 872.3 1760 848.7C1613.3 825 1466.7 872 1320 889.7C1173.3 907.3 1026.7 895.7 880 842.7C733.3 789.7 586.7 695.3 440 707.2C293.3 719 146.7 837 73.3 896L0 955Z" fill="#881953"></path><path d="M0 1806L73.3 1806C146.7 1806 293.3 1806 440 1794.3C586.7 1782.7 733.3 1759.3 880 1830.2C1026.7 1901 1173.3 2066 1320 2054.2C1466.7 2042.3 1613.3 1853.7 1760 1889.2C1906.7 1924.7 2053.3 2184.3 2200 2184.3C2346.7 2184.3 2493.3 1924.7 2640 1901C2786.7 1877.3 2933.3 2089.7 3080 2166.3C3226.7 2243 3373.3 2184 3520 2125C3666.7 2066 3813.3 2007 3886.7 1977.5L3960 1948L3960 1167L3886.7 1167C3813.3 1167 3666.7 1167 3520 1255.5C3373.3 1344 3226.7 1521 3080 1556.5C2933.3 1592 2786.7 1486 2640 1403.5C2493.3 1321 2346.7 1262 2200 1191.2C2053.3 1120.3 1906.7 1037.7 1760 1037.7C1613.3 1037.7 1466.7 1120.3 1320 1126.2C1173.3 1132 1026.7 1061 880 996C733.3 931 586.7 872 440 889.7C293.3 907.3 146.7 1001.7 73.3 1048.8L0 1096Z" fill="#881953"></path><path d="M0 1913L73.3 1907C146.7 1901 293.3 1889 440 1894.8C586.7 1900.7 733.3 1924.3 880 2001C1026.7 2077.7 1173.3 2207.3 1320 2177.8C1466.7 2148.3 1613.3 1959.7 1760 1995.2C1906.7 2030.7 2053.3 2290.3 2200 2296.2C2346.7 2302 2493.3 2054 2640 2018.5C2786.7 1983 2933.3 2160 3080 2219C3226.7 2278 3373.3 2219 3520 2189.5C3666.7 2160 3813.3 2160 3886.7 2160L3960 2160L3960 1946L3886.7 1975.5C3813.3 2005 3666.7 2064 3520 2123C3373.3 2182 3226.7 2241 3080 2164.3C2933.3 2087.7 2786.7 1875.3 2640 1899C2493.3 1922.7 2346.7 2182.3 2200 2182.3C2053.3 2182.3 1906.7 1922.7 1760 1887.2C1613.3 1851.7 1466.7 2040.3 1320 2052.2C1173.3 2064 1026.7 1899 880 1828.2C733.3 1757.3 586.7 1780.7 440 1792.3C293.3 1804 146.7 1804 73.3 1804L0 1804Z" fill="#911a58"></path><path d="M0 2054L73.3 2065.8C146.7 2077.7 293.3 2101.3 440 2119C586.7 2136.7 733.3 2148.3 880 2225C1026.7 2301.7 1173.3 2443.3 1320 2413.8C1466.7 2384.3 1613.3 2183.7 1760 2219.2C1906.7 2254.7 2053.3 2526.3 2200 2532.3C2346.7 2538.3 2493.3 2278.7 2640 2213.7C2786.7 2148.7 2933.3 2278.3 3080 2349.2C3226.7 2420 3373.3 2432 3520 2455.7C3666.7 2479.3 3813.3 2514.7 3886.7 2532.3L3960 2550L3960 2158L3886.7 2158C3813.3 2158 3666.7 2158 3520 2187.5C3373.3 2217 3226.7 2276 3080 2217C2933.3 2158 2786.7 1981 2640 2016.5C2493.3 2052 2346.7 2300 2200 2294.2C2053.3 2288.3 1906.7 2028.7 1760 1993.2C1613.3 1957.7 1466.7 2146.3 1320 2175.8C1173.3 2205.3 1026.7 2075.7 880 1999C733.3 1922.3 586.7 1898.7 440 1892.8C293.3 1887 146.7 1899 73.3 1905L0 1911Z" fill="#a71e65"></path><path d="M0 3293L73.3 3186.8C146.7 3080.7 293.3 2868.3 440 2844.8C586.7 2821.3 733.3 2986.7 880 3028C1026.7 3069.3 1173.3 2986.7 1320 2933.5C1466.7 2880.3 1613.3 2856.7 1760 2909.7C1906.7 2962.7 2053.3 3092.3 2200 3121.8C2346.7 3151.3 2493.3 3080.7 2640 3027.7C2786.7 2974.7 2933.3 2939.3 3080 2968.8C3226.7 2998.3 3373.3 3092.7 3520 3163.5C3666.7 3234.3 3813.3 3281.7 3886.7 3305.3L3960 3329L3960 2548L3886.7 2530.3C3813.3 2512.7 3666.7 2477.3 3520 2453.7C3373.3 2430 3226.7 2418 3080 2347.2C2933.3 2276.3 2786.7 2146.7 2640 2211.7C2493.3 2276.7 2346.7 2536.3 2200 2530.3C2053.3 2524.3 1906.7 2252.7 1760 2217.2C1613.3 2181.7 1466.7 2382.3 1320 2411.8C1173.3 2441.3 1026.7 2299.7 880 2223C733.3 2146.3 586.7 2134.7 440 2117C293.3 2099.3 146.7 2075.7 73.3 2063.8L0 2052Z" fill="#bc2a74"></path><path d="M0 3329L73.3 3270C146.7 3211 293.3 3093 440 3081.2C586.7 3069.3 733.3 3163.7 880 3169.5C1026.7 3175.3 1173.3 3092.7 1320 3069C1466.7 3045.3 1613.3 3080.7 1760 3127.8C1906.7 3175 2053.3 3234 2200 3228.2C2346.7 3222.3 2493.3 3151.7 2640 3092.7C2786.7 3033.7 2933.3 2986.3 3080 3021.7C3226.7 3057 3373.3 3175 3520 3257.7C3666.7 3340.3 3813.3 3387.7 3886.7 3411.3L3960 3435L3960 3327L3886.7 3303.3C3813.3 3279.7 3666.7 3232.3 3520 3161.5C3373.3 3090.7 3226.7 2996.3 3080 2966.8C2933.3 2937.3 2786.7 2972.7 2640 3025.7C2493.3 3078.7 2346.7 3149.3 2200 3119.8C2053.3 3090.3 1906.7 2960.7 1760 2907.7C1613.3 2854.7 1466.7 2878.3 1320 2931.5C1173.3 2984.7 1026.7 3067.3 880 3026C733.3 2984.7 586.7 2819.3 440 2842.8C293.3 2866.3 146.7 3078.7 73.3 3184.8L0 3291Z" fill="#c64a85"></path><path d="M0 3541L73.3 3541C146.7 3541 293.3 3541 440 3541C586.7 3541 733.3 3541 880 3541C1026.7 3541 1173.3 3541 1320 3541C1466.7 3541 1613.3 3541 1760 3541C1906.7 3541 2053.3 3541 2200 3541C2346.7 3541 2493.3 3541 2640 3541C2786.7 3541 2933.3 3541 3080 3541C3226.7 3541 3373.3 3541 3520 3541C3666.7 3541 3813.3 3541 3886.7 3541L3960 3541L3960 3433L3886.7 3409.3C3813.3 3385.7 3666.7 3338.3 3520 3255.7C3373.3 3173 3226.7 3055 3080 3019.7C2933.3 2984.3 2786.7 3031.7 2640 3090.7C2493.3 3149.7 2346.7 3220.3 2200 3226.2C2053.3 3232 1906.7 3173 1760 3125.8C1613.3 3078.7 1466.7 3043.3 1320 3067C1173.3 3090.7 1026.7 3173.3 880 3167.5C733.3 3161.7 586.7 3067.3 440 3079.2C293.3 3091 146.7 3209 73.3 3268L0 3327Z" fill="#d06497"></path></svg>