<svg width="310" height="422" viewBox="0 0 310 422" fill="none" xmlns="http://www.w3.org/2000/svg">
<path fill-rule="evenodd" clip-rule="evenodd" d="M145.262 61.4901C140.654 56.0814 137.536 49.4529 138.057 42.0255C139.558 20.625 169.349 25.3328 175.143 36.1339C180.938 46.9351 180.25 74.333 172.76 76.2635C169.774 77.0333 163.411 75.1475 156.935 71.2443L161 100H137L145.262 61.4901Z" fill="#915B3C"/>
<path fill-rule="evenodd" clip-rule="evenodd" d="M165.664 24.37C162.384 23.37 157.623 23.0308 155.621 23.2603C156.76 20.5308 157.212 17.4899 156.844 14.5291C156.485 11.6521 155.2 9.20237 154.011 6.63538C153.463 5.45217 152.842 4.2754 151.916 3.37038C150.972 2.44834 149.778 1.83973 148.526 1.54937C147.245 1.25215 145.905 1.2769 144.622 1.54663C144.054 1.66593 143.545 1.9255 142.988 2.06979C142.418 2.21763 142.141 1.86077 141.727 1.50213C140.73 0.637974 139.268 0.211378 138.006 0.0587004C136.59 -0.112518 135.121 0.101021 133.771 0.566391C132.457 1.01943 131.195 1.75509 130.245 2.82681C129.822 3.30387 129.438 3.84687 129.188 4.44638C129.086 4.6924 129.069 4.83815 128.823 4.92827C128.596 5.01171 128.331 5.01412 128.096 5.09352C125.831 5.86095 123.893 7.61166 122.838 9.85951C122.223 11.1709 121.932 13.4798 122.011 16.0677C122.091 18.6555 124.428 25.4081 126.613 27.8711C128.564 30.0695 131.432 31.5203 134.199 32.1553C132.362 34.2548 131.14 36.8784 130.235 39.5467C129.253 42.445 128.645 45.4566 128.421 48.5251C128.208 51.4405 128.188 54.5235 128.871 57.3767C129.511 60.0448 130.878 62.2337 133.161 63.6223C134.206 64.2584 135.331 64.7363 136.463 65.173C137.578 65.6034 138.696 66.0219 139.864 66.2634C142.075 66.7203 144.622 66.6418 146.325 64.8822C146.939 64.2479 147.614 63.4508 148.061 62.6759C148.222 62.3972 148.32 62.215 148.124 61.9426C147.89 61.6164 147.511 61.3664 147.21 61.1112C145.493 59.6561 144.43 57.7135 144.163 55.4049C143.891 53.0626 144.52 50.0393 146.797 49.017C149.608 47.7552 152.704 49.2036 155.203 50.5537C156.265 46.806 158.445 43.4315 161.863 41.7124C165.645 39.8105 169.985 39.5879 173.871 37.9561C174.884 37.5309 175.915 37.0482 176.661 36.1818C176.973 35.8197 177.338 35.35 177.463 34.871C177.626 34.2419 177.22 33.7145 176.907 33.2241C175.245 30.6236 168.943 25.37 165.664 24.37Z" fill="#191847"/>
<path fill-rule="evenodd" clip-rule="evenodd" d="M131 183L205.306 307.227L261.015 412.25H273.014L179.674 183L131 183Z" fill="#784931"/>
<path fill-rule="evenodd" clip-rule="evenodd" d="M253.678 407.402C252.559 410.388 252 412.623 252 414.106C252 415.909 252.3 418.54 252.901 422C254.993 422 273.794 422 309.303 422C310.769 417.154 309.923 414.539 306.765 414.152C303.607 413.766 300.984 413.417 298.895 413.106L272.68 401.419C272.176 401.194 271.584 401.421 271.359 401.925C271.356 401.934 271.352 401.942 271.348 401.951L269.663 406.039C266.74 407.403 264.364 408.085 262.537 408.085C261.052 408.085 259.001 407.485 256.384 406.285C255.38 405.825 254.193 406.266 253.733 407.27C253.713 407.313 253.695 407.357 253.678 407.402Z" fill="#E4E4E4"/>
<path fill-rule="evenodd" clip-rule="evenodd" d="M245.543 395.433L268.683 388.433C258.545 358.125 246.119 324.772 231.405 288.374C216.692 251.977 200.89 216.852 184 183H118.644C137.422 225.821 157.329 264.729 178.366 299.725C199.402 334.721 221.795 366.624 245.543 395.433Z" fill="#AD1F68"/>
<path fill-rule="evenodd" clip-rule="evenodd" d="M126.117 183C119.104 226.654 105.577 282.427 104.301 284.149C103.45 285.296 72.8127 295.562 12.3899 314.947L14.9818 325.528C87.0358 315.132 125.002 307.066 128.881 301.331C134.699 292.728 163.748 224.763 175 183H126.117Z" fill="#915B3C"/>
<path fill-rule="evenodd" clip-rule="evenodd" d="M33.6295 305.8L38.1949 322.842C92.0871 327.569 125.108 324.153 137.258 312.596C149.407 301.039 163.254 257.84 178.799 183H116.478C106.63 244.284 101.124 276.212 99.9602 278.785C98.7967 281.357 76.6865 290.363 33.6295 305.8Z" fill="#BA2170"/>
<path fill-rule="evenodd" clip-rule="evenodd" d="M15.3489 310.539C12.2135 309.956 9.91578 309.793 8.45562 310.05C6.67973 310.363 4.14043 311.116 0.837726 312.309C1.20099 314.369 4.46568 332.884 10.6318 367.854C15.6582 368.456 18.0875 367.168 17.9196 363.991C17.7517 360.814 17.6398 358.17 17.5837 356.059L24.5407 328.213C24.6746 327.677 24.3487 327.134 23.8129 327.001C23.8038 326.998 23.7946 326.996 23.7853 326.994L19.4672 326.044C17.6164 323.402 16.5322 321.181 16.2149 319.381C15.957 317.919 16.1915 315.795 16.9184 313.01C17.1973 311.941 16.5571 310.849 15.4883 310.57C15.4422 310.558 15.3957 310.548 15.3489 310.539Z" fill="#E4E4E4"/>
<path fill-rule="evenodd" clip-rule="evenodd" d="M181.638 120.7L216.348 101.69C222.12 94.8355 227.807 89.5122 233.409 85.7199C235.121 85.0052 238.114 84.5726 235.315 89.5415C232.515 94.5104 229.794 99.8628 231.22 101.394C232.647 102.924 236.203 100.786 237.905 103.329C239.039 105.025 232.963 107.704 219.677 111.365L194.456 134.458L181.638 120.7ZM236 136.74L251.247 128.364C253.386 120.224 255.943 116.128 258.918 116.077C261.204 115.014 257.224 125.3 261.556 124.408C265.889 123.516 276.464 115.651 278.286 117.248C280.982 119.61 278.578 126.864 275.746 130.473C270.453 137.218 266.071 139.524 255.238 142.544C249.575 144.124 243.451 147.289 236.868 152.04L236 136.74Z" fill="#915B3C"/>
<path fill-rule="evenodd" clip-rule="evenodd" d="M164.734 116.465C176.892 116.337 193.104 113.769 210.402 102.789L217.196 117.939C205.264 129.78 188.486 139.51 173.816 139.098C162.255 138.773 156.347 124.789 164.734 116.465Z" fill="#1836CD"/>
<path fill-rule="evenodd" clip-rule="evenodd" d="M181.104 140.761C194.011 143.98 215.655 140.184 246.036 129.373C253.572 144.964 257.055 156.078 256.487 162.717C230.424 176.331 208.087 182.401 189.683 182.802C190.268 193.721 188.939 204.112 184.474 213.606C175.295 233.124 121.545 215.048 103.473 218.606C92.1554 181.851 114.038 166.914 114.056 143.397C114.075 117.642 134.754 78 137.797 78H165.544C167.075 97.669 174.78 119.346 181.104 140.761Z" fill="#2848E6"/>
</svg>
