<svg width="763" height="763" viewBox="0 0 763 763" fill="none" xmlns="http://www.w3.org/2000/svg">
<path d="M129.744 606.228C129.04 603.781 128.688 599.905 128.688 594.602C128.688 589.299 129.04 586.036 129.744 584.812C130.096 584.404 130.975 583.792 132.383 582.976C134.143 581.753 135.902 580.529 137.662 579.305C139.773 578.081 141.709 577.062 143.468 576.246C145.58 575.022 147.163 574.206 148.219 573.798C163.703 568.903 179.011 563.6 194.142 557.889C209.626 552.178 224.758 545.651 239.538 538.309C254.318 530.966 268.57 522.603 282.295 513.221C296.019 503.431 309.215 492.009 321.884 478.955C352.148 447.137 373.79 419.806 386.81 396.962C400.183 373.711 407.221 354.13 407.925 338.221C408.629 322.312 404.23 309.666 394.728 300.284C385.579 290.494 373.79 283.355 359.362 278.868C345.286 273.973 329.626 271.321 312.383 270.913C295.491 270.506 279.655 271.525 264.875 273.973C250.447 276.42 238.131 279.888 227.925 284.375C218.072 288.862 212.969 293.553 212.617 298.448L194.142 510.774C193.791 514.445 192.031 517.3 188.864 519.34C186.049 520.972 182.881 521.788 179.362 521.788C176.195 521.788 173.204 520.972 170.389 519.34C167.925 517.3 166.694 514.445 166.694 510.774V340.057H129.744C129.392 339.241 129.216 337.609 129.216 335.162C129.216 332.306 129.392 330.471 129.744 329.655C131.151 327.615 133.439 324.148 136.606 319.253C140.125 313.95 143.82 308.443 147.691 302.732C151.562 297.021 155.257 291.718 158.776 286.823C162.295 281.927 164.934 278.664 166.694 277.032C167.046 271.729 167.574 262.551 168.277 249.497C169.333 236.444 170.213 222.574 170.917 207.889C171.972 193.204 172.852 179.334 173.556 166.281C174.612 152.819 175.316 143.641 175.667 138.746C176.371 127.732 175.316 119.981 172.5 115.494C170.037 110.599 166.518 108.151 161.943 108.151C157.368 107.743 152.266 109.171 146.635 112.434C141.005 115.29 135.374 118.961 129.744 123.448C124.113 127.936 118.835 132.627 113.908 137.522C108.981 142.417 105.11 146.292 102.295 149.148C99.4799 152.411 94.5533 158.122 87.5152 166.281C80.4771 174.031 73.0871 182.598 65.3451 191.98C57.6032 200.954 50.2132 209.521 43.1751 217.679C36.137 225.43 31.3863 230.937 28.923 234.2H1.47436C-1.69279 222.778 0.242693 210.744 7.2808 198.099C14.6708 185.045 25.5799 171.788 40.008 158.326C54.4361 144.865 71.5035 131.403 91.2102 117.941C111.269 104.48 132.383 91.8342 154.553 80.0044C176.723 67.7666 198.893 56.5487 221.063 46.3505C243.585 36.1524 264.523 27.586 283.878 20.6512C303.585 13.3086 320.828 7.80157 335.608 4.13025C350.388 0.458916 361.121 -0.76486 367.808 0.458916C374.142 2.09062 378.189 6.16987 379.948 12.6967C381.708 19.2235 382.06 26.5661 381.004 34.7247C379.948 42.4752 378.013 50.2258 375.198 57.9764C372.734 65.727 370.271 71.4379 367.808 75.1093C356.899 93.058 346.869 109.375 337.72 124.06C328.57 138.338 319.069 152.003 309.215 165.057C299.714 177.703 289.333 190.552 278.072 203.606C267.163 216.251 254.494 230.121 240.066 245.214C252.031 247.662 263.468 248.07 274.377 246.438C285.638 244.806 296.547 243.175 307.104 241.543C318.013 239.503 329.098 238.483 340.359 238.483C351.972 238.075 364.289 240.319 377.309 245.214C385.051 248.07 391.913 251.129 397.895 254.393C403.878 257.656 408.981 261.531 413.203 266.018C417.778 270.506 421.473 276.217 424.288 283.151C427.456 289.678 430.095 298.041 432.206 308.239C436.781 332.714 435.021 356.578 426.928 379.83C418.834 403.081 406.517 425.109 389.978 445.914C373.79 466.718 354.787 486.298 332.969 504.655C311.151 522.603 288.981 538.921 266.459 553.606C243.937 568.291 222.119 580.937 201.005 591.543C180.242 602.149 162.647 610.511 148.219 616.63C144.348 618.67 140.653 618.466 137.134 616.018C133.615 613.163 131.151 609.9 129.744 606.228ZM212.617 234.2C215.081 231.753 218.6 227.877 223.175 222.574C228.101 216.863 233.556 210.541 239.538 203.606C245.872 196.671 252.383 189.532 259.069 182.19C265.755 174.439 271.913 167.096 277.544 160.162C283.526 152.819 288.805 146.292 293.38 140.581C298.306 134.87 301.825 130.587 303.937 127.732C307.456 123.652 311.679 117.737 316.605 109.987C321.884 101.828 326.987 93.8738 331.913 86.1233C336.84 77.9648 341.063 70.8261 344.582 64.7072C348.101 58.5883 349.86 54.917 349.86 53.6932V21.875C339.303 19.8354 326.811 20.8552 312.383 24.9344C298.306 29.0137 284.23 34.3167 270.154 40.8435C256.078 46.9624 242.881 53.4892 230.565 60.424C218.6 66.9508 209.45 71.8459 203.116 75.1093L212.617 95.9135V234.2Z" fill="white"/>
<path d="M454.06 747.207C453.356 744.76 453.004 740.884 453.004 735.581C453.004 730.278 453.356 727.015 454.06 725.791C454.411 725.383 455.291 724.771 456.699 723.955C458.458 722.732 460.218 721.508 461.977 720.284C464.089 719.06 466.024 718.041 467.784 717.225C469.895 716.001 471.479 715.185 472.535 714.777C488.018 709.882 503.326 704.579 518.458 698.868C533.942 693.157 549.074 686.63 563.854 679.288C578.634 671.945 592.886 663.583 606.61 654.2C620.335 644.41 633.531 632.988 646.2 619.934C676.464 588.116 698.106 560.785 711.126 537.941C724.499 514.69 731.537 495.109 732.241 479.2C732.944 463.291 728.546 450.645 719.044 441.263C709.895 431.473 698.106 424.334 683.678 419.847C669.601 414.952 653.942 412.3 636.698 411.893C619.807 411.485 603.971 412.504 589.191 414.952C574.763 417.4 562.446 420.867 552.241 425.354C542.388 429.841 537.285 434.532 536.933 439.427L518.458 651.753C518.106 655.424 516.347 658.279 513.18 660.319C510.364 661.951 507.197 662.767 503.678 662.767C500.511 662.767 497.52 661.951 494.705 660.319C492.241 658.279 491.01 655.424 491.01 651.753V481.036H454.06C453.708 480.22 453.532 478.588 453.532 476.141C453.532 473.285 453.708 471.45 454.06 470.634C455.467 468.594 457.755 465.127 460.922 460.232C464.441 454.929 468.136 449.422 472.007 443.711C475.878 438 479.573 432.697 483.092 427.802C486.611 422.907 489.25 419.643 491.01 418.011C491.361 412.708 491.889 403.53 492.593 390.476C493.649 377.423 494.529 363.553 495.232 348.868C496.288 334.183 497.168 320.313 497.872 307.26C498.927 293.798 499.631 284.62 499.983 279.725C500.687 268.711 499.631 260.96 496.816 256.473C494.353 251.578 490.834 249.13 486.259 249.13C481.684 248.722 476.581 250.15 470.951 253.413C465.32 256.269 459.69 259.94 454.06 264.427C448.429 268.915 443.15 273.606 438.224 278.501C433.297 283.396 429.426 287.271 426.611 290.127C423.796 293.39 418.869 299.101 411.831 307.26C404.793 315.01 397.403 323.577 389.661 332.959C381.919 341.933 374.529 350.5 367.491 358.658C360.453 366.409 355.702 371.916 353.239 375.179H325.79C322.623 363.757 324.558 351.724 331.597 339.078C338.987 326.024 349.896 312.767 364.324 299.305C378.752 285.844 395.819 272.382 415.526 258.92C435.585 245.459 456.699 232.813 478.869 220.983C501.039 208.746 523.209 197.528 545.379 187.33C567.901 177.131 588.839 168.565 608.194 161.63C627.901 154.288 645.144 148.781 659.924 145.109C674.704 141.438 685.437 140.214 692.123 141.438C698.458 143.07 702.505 147.149 704.264 153.676C706.024 160.203 706.376 167.545 705.32 175.704C704.264 183.454 702.329 191.205 699.513 198.955C697.05 206.706 694.587 212.417 692.123 216.088C681.214 234.037 671.185 250.354 662.035 265.039C652.886 279.317 643.384 292.982 633.531 306.036C624.03 318.682 613.649 331.531 602.388 344.585C591.478 357.231 578.81 371.1 564.382 386.193C576.347 388.641 587.783 389.049 598.693 387.417C609.953 385.785 620.863 384.154 631.42 382.522C642.329 380.482 653.414 379.462 664.675 379.462C676.288 379.055 688.604 381.298 701.625 386.193C709.367 389.049 716.229 392.108 722.211 395.372C728.194 398.635 733.296 402.51 737.519 406.997C742.094 411.485 745.789 417.196 748.604 424.13C751.771 430.657 754.411 439.02 756.522 449.218C761.097 473.693 759.337 497.557 751.243 520.809C743.15 544.06 730.833 566.088 714.293 586.893C698.106 607.697 679.103 627.277 657.285 645.634C635.467 663.583 613.297 679.9 590.775 694.585C568.253 709.27 546.435 721.916 525.32 732.522C504.558 743.128 486.963 751.49 472.535 757.609C468.664 759.649 464.969 759.445 461.45 756.997C457.93 754.142 455.467 750.879 454.06 747.207ZM536.933 375.179C539.397 372.732 542.916 368.856 547.49 363.553C552.417 357.842 557.872 351.52 563.854 344.585C570.188 337.65 576.698 330.511 583.385 323.169C590.071 315.418 596.229 308.075 601.86 301.141C607.842 293.798 613.121 287.271 617.695 281.56C622.622 275.849 626.141 271.566 628.253 268.711C631.772 264.631 635.994 258.717 640.921 250.966C646.2 242.807 651.302 234.853 656.229 227.102C661.156 218.944 665.379 211.805 668.898 205.686C672.417 199.567 674.176 195.896 674.176 194.672V162.854C663.619 160.814 651.126 161.834 636.698 165.913C622.622 169.993 608.546 175.296 594.47 181.823C580.393 187.941 567.197 194.468 554.88 201.403C542.916 207.93 533.766 212.825 527.432 216.088L536.933 236.893V375.179Z" fill="white"/>
</svg>
