<svg id="visual" viewBox="0 0 960 540" width="960" height="540" xmlns="http://www.w3.org/2000/svg" xmlns:xlink="http://www.w3.org/1999/xlink" version="1.1"><rect x="0" y="0" width="960" height="540" fill="#ffffff"></rect><path d="M0 306L22.8 313C45.7 320 91.3 334 137 338.5C182.7 343 228.3 338 274 341.3C319.7 344.7 365.3 356.3 411.2 362.5C457 368.7 503 369.3 548.8 364.8C594.7 360.3 640.3 350.7 686 337.2C731.7 323.7 777.3 306.3 823 309.8C868.7 313.3 914.3 337.7 937.2 349.8L960 362L960 541L937.2 541C914.3 541 868.7 541 823 541C777.3 541 731.7 541 686 541C640.3 541 594.7 541 548.8 541C503 541 457 541 411.2 541C365.3 541 319.7 541 274 541C228.3 541 182.7 541 137 541C91.3 541 45.7 541 22.8 541L0 541Z" fill="#b8216f"></path><path d="M0 409L22.8 410.8C45.7 412.7 91.3 416.3 137 411.7C182.7 407 228.3 394 274 380.8C319.7 367.7 365.3 354.3 411.2 353C457 351.7 503 362.3 548.8 369C594.7 375.7 640.3 378.3 686 371.2C731.7 364 777.3 347 823 351.5C868.7 356 914.3 382 937.2 395L960 408L960 541L937.2 541C914.3 541 868.7 541 823 541C777.3 541 731.7 541 686 541C640.3 541 594.7 541 548.8 541C503 541 457 541 411.2 541C365.3 541 319.7 541 274 541C228.3 541 182.7 541 137 541C91.3 541 45.7 541 22.8 541L0 541Z" fill="#af1893"></path><path d="M0 420L22.8 423.2C45.7 426.3 91.3 432.7 137 427.2C182.7 421.7 228.3 404.3 274 400.3C319.7 396.3 365.3 405.7 411.2 411.8C457 418 503 421 548.8 428.8C594.7 436.7 640.3 449.3 686 455C731.7 460.7 777.3 459.3 823 453.2C868.7 447 914.3 436 937.2 430.5L960 425L960 541L937.2 541C914.3 541 868.7 541 823 541C777.3 541 731.7 541 686 541C640.3 541 594.7 541 548.8 541C503 541 457 541 411.2 541C365.3 541 319.7 541 274 541C228.3 541 182.7 541 137 541C91.3 541 45.7 541 22.8 541L0 541Z" fill="#8f2dbc"></path><path d="M0 457L22.8 460.2C45.7 463.3 91.3 469.7 137 477.8C182.7 486 228.3 496 274 491.3C319.7 486.7 365.3 467.3 411.2 460.5C457 453.7 503 459.3 548.8 461.5C594.7 463.7 640.3 462.3 686 459C731.7 455.7 777.3 450.3 823 455.2C868.7 460 914.3 475 937.2 482.5L960 490L960 541L937.2 541C914.3 541 868.7 541 823 541C777.3 541 731.7 541 686 541C640.3 541 594.7 541 548.8 541C503 541 457 541 411.2 541C365.3 541 319.7 541 274 541C228.3 541 182.7 541 137 541C91.3 541 45.7 541 22.8 541L0 541Z" fill="#2748e6"></path></svg>