<svg id="visual" viewBox="0 0 960 200" width="960" height="200" xmlns="http://www.w3.org/2000/svg" xmlns:xlink="http://www.w3.org/1999/xlink" version="1.1"><path d="M0 39L14.5 38.3C29 37.7 58 36.3 87.2 38C116.3 39.7 145.7 44.3 174.8 45.3C204 46.3 233 43.7 262 43.7C291 43.7 320 46.3 349 42.3C378 38.3 407 27.7 436.2 23.3C465.3 19 494.7 21 523.8 21C553 21 582 19 611 18.3C640 17.7 669 18.3 698 21.7C727 25 756 31 785.2 32.3C814.3 33.7 843.7 30.3 872.8 28.3C902 26.3 931 25.7 945.5 25.3L960 25L960 0L945.5 0C931 0 902 0 872.8 0C843.7 0 814.3 0 785.2 0C756 0 727 0 698 0C669 0 640 0 611 0C582 0 553 0 523.8 0C494.7 0 465.3 0 436.2 0C407 0 378 0 349 0C320 0 291 0 262 0C233 0 204 0 174.8 0C145.7 0 116.3 0 87.2 0C58 0 29 0 14.5 0L0 0Z" fill="#2848e6"></path><path d="M0 119L14.5 117C29 115 58 111 87.2 105.3C116.3 99.7 145.7 92.3 174.8 87.7C204 83 233 81 262 82C291 83 320 87 349 84.7C378 82.3 407 73.7 436.2 74.3C465.3 75 494.7 85 523.8 85.3C553 85.7 582 76.3 611 81C640 85.7 669 104.3 698 109.7C727 115 756 107 785.2 100C814.3 93 843.7 87 872.8 83C902 79 931 77 945.5 76L960 75L960 23L945.5 23.3C931 23.7 902 24.3 872.8 26.3C843.7 28.3 814.3 31.7 785.2 30.3C756 29 727 23 698 19.7C669 16.3 640 15.7 611 16.3C582 17 553 19 523.8 19C494.7 19 465.3 17 436.2 21.3C407 25.7 378 36.3 349 40.3C320 44.3 291 41.7 262 41.7C233 41.7 204 44.3 174.8 43.3C145.7 42.3 116.3 37.7 87.2 36C58 34.3 29 35.7 14.5 36.3L0 37Z" fill="#8c81f0"></path><path d="M0 153L14.5 153C29 153 58 153 87.2 156.7C116.3 160.3 145.7 167.7 174.8 171.7C204 175.7 233 176.3 262 174.7C291 173 320 169 349 164C378 159 407 153 436.2 150C465.3 147 494.7 147 523.8 149.3C553 151.7 582 156.3 611 159.7C640 163 669 165 698 165.7C727 166.3 756 165.7 785.2 161.3C814.3 157 843.7 149 872.8 148C902 147 931 153 945.5 156L960 159L960 73L945.5 74C931 75 902 77 872.8 81C843.7 85 814.3 91 785.2 98C756 105 727 113 698 107.7C669 102.3 640 83.7 611 79C582 74.3 553 83.7 523.8 83.3C494.7 83 465.3 73 436.2 72.3C407 71.7 378 80.3 349 82.7C320 85 291 81 262 80C233 79 204 81 174.8 85.7C145.7 90.3 116.3 97.7 87.2 103.3C58 109 29 113 14.5 115L0 117Z" fill="#c9bef9"></path><path d="M0 201L14.5 201C29 201 58 201 87.2 201C116.3 201 145.7 201 174.8 201C204 201 233 201 262 201C291 201 320 201 349 201C378 201 407 201 436.2 201C465.3 201 494.7 201 523.8 201C553 201 582 201 611 201C640 201 669 201 698 201C727 201 756 201 785.2 201C814.3 201 843.7 201 872.8 201C902 201 931 201 945.5 201L960 201L960 157L945.5 154C931 151 902 145 872.8 146C843.7 147 814.3 155 785.2 159.3C756 163.7 727 164.3 698 163.7C669 163 640 161 611 157.7C582 154.3 553 149.7 523.8 147.3C494.7 145 465.3 145 436.2 148C407 151 378 157 349 162C320 167 291 171 262 172.7C233 174.3 204 173.7 174.8 169.7C145.7 165.7 116.3 158.3 87.2 154.7C58 151 29 151 14.5 151L0 151Z" fill="#ffffff"></path></svg>